<svg xmlns="http://www.w3.org/2000/svg" xmlns:xlink="http://www.w3.org/1999/xlink" width="1920" height="700" viewBox="0 0 1440 525"><style><![CDATA[.B{fill:rgb(3.138733%,21.958923%,38.819885%)}.C{fill:rgb(100%,100%,0%)}.D{fill:rgb(74.899292%,8.239746%,5.488586%)}.E{fill:rgb(99.609375%,85.879517%,25.489807%)}.F{fill:rgb(100%,100%,100%)}]]></style><defs><clipPath id="A"><path d="M0 0h1440v525H0zm0 0"/></clipPath><clipPath id="B"><path d="M45 301h161v161H45zm0 0"/></clipPath><clipPath id="C"><path d="M71.87 192.195l251.145 188.887L214.773 525H0V287.75zm0 0"/></clipPath><clipPath id="D"><path d="M64 320h124v124H64zm0 0"/></clipPath><clipPath id="E"><path d="M71.87 192.195l251.145 188.887L214.773 525H0V287.75zm0 0"/></clipPath><clipPath id="F"><path d="M0 496h48v29H0zm0 0"/></clipPath><clipPath id="G"><path d="M71.87 192.195l251.145 188.887L214.773 525H0V287.75zm0 0"/></clipPath><clipPath id="H"><path d="M16 444h71v76H16zm0 0"/></clipPath><clipPath id="I"><path d="M71.87 192.195l251.145 188.887L214.773 525H0V287.75zm0 0"/></clipPath><clipPath id="J"><path d="M62 439h27v24H62zm0 0"/></clipPath><clipPath id="K"><path d="M71.87 192.195l251.145 188.887L214.773 525H0V287.75zm0 0"/></clipPath><clipPath id="L"><path d="M99 337h70v86H99zm0 0"/></clipPath><clipPath id="M"><path d="M71.87 192.195l251.145 188.887L214.773 525H0V287.75zm0 0"/></clipPath><clipPath id="N"><path d="M59 315h134v134H59zm0 0"/></clipPath><clipPath id="O"><path d="M71.87 192.195l251.145 188.887L214.773 525H0V287.75zm0 0"/></clipPath><clipPath id="P"><path d="M0 296h212v229H0zm0 0"/></clipPath><clipPath id="Q"><path d="M71.87 192.195l251.145 188.887L214.773 525H0V287.75zm0 0"/></clipPath><clipPath id="R"><path d="M180 285h20v22h-20zm0 0"/></clipPath><clipPath id="S"><path d="M71.87 192.195l251.145 188.887L214.773 525H0V287.75zm0 0"/></clipPath><clipPath id="T"><path d="M200 437h22v19h-22zm0 0"/></clipPath><clipPath id="U"><path d="M71.87 192.195l251.145 188.887L214.773 525H0V287.75zm0 0"/></clipPath><clipPath id="V"><path d="M29 308h22v19H29zm0 0"/></clipPath><clipPath id="W"><path d="M71.87 192.195l251.145 188.887L214.773 525H0V287.75zm0 0"/></clipPath><clipPath id="X"><path d="M219 361h25v13h-25zm0 0"/></clipPath><clipPath id="Y"><path d="M71.87 192.195l251.145 188.887L214.773 525H0V287.75zm0 0"/></clipPath><clipPath id="Z"><path d="M7 391h25v13H7zm0 0"/></clipPath><clipPath id="a"><path d="M71.87 192.195l251.145 188.887L214.773 525H0V287.75zm0 0"/></clipPath><clipPath id="b"><path d="M133 476h14v24h-14zm0 0"/></clipPath><clipPath id="c"><path d="M71.87 192.195l251.145 188.887L214.773 525H0V287.75zm0 0"/></clipPath><clipPath id="d"><path d="M103 263h14v25h-14zm0 0"/></clipPath><clipPath id="e"><path d="M71.87 192.195l251.145 188.887L214.773 525H0V287.75zm0 0"/></clipPath><clipPath id="f"><path d="M1236 302h161v161h-161zm0 0"/></clipPath><clipPath id="g"><path d="M1440 284.824V525h-217.105L1119.62 371.707l260.62-175.582zm0 0"/></clipPath><clipPath id="h"><path d="M1255 321h123v123h-123zm0 0"/></clipPath><clipPath id="i"><path d="M1440 284.824V525h-217.105L1119.62 371.707l260.62-175.582zm0 0"/></clipPath><clipPath id="j"><path d="M1389 501h51v24h-51zm0 0"/></clipPath><clipPath id="k"><path d="M1440 284.824V525h-217.105L1119.62 371.707l260.62-175.582zm0 0"/></clipPath><clipPath id="l"><path d="M1352 447h70v77h-70zm0 0"/></clipPath><clipPath id="m"><path d="M1440 284.824V525h-217.105L1119.62 371.707l260.62-175.582zm0 0"/></clipPath><clipPath id="n"><path d="M1352 441h27v24h-27zm0 0"/></clipPath><clipPath id="o"><path d="M1440 284.824V525h-217.105L1119.62 371.707l260.62-175.582zm0 0"/></clipPath><clipPath id="p"><path d="M1275 338h76v75h-76zm0 0"/></clipPath><clipPath id="q"><path d="M1440 284.824V525h-217.105L1119.62 371.707l260.62-175.582zm0 0"/></clipPath><clipPath id="r"><path d="M1249 316h134v134h-134zm0 0"/></clipPath><clipPath id="s"><path d="M1440 284.824V525h-217.105L1119.62 371.707l260.62-175.582zm0 0"/></clipPath><clipPath id="t"><path d="M1231 297h209v228h-209zm0 0"/></clipPath><clipPath id="u"><path d="M1440 284.824V525h-217.105L1119.62 371.707l260.62-175.582zm0 0"/></clipPath><clipPath id="v"><path d="M1247 283h19v22h-19zm0 0"/></clipPath><clipPath id="w"><path d="M1440 284.824V525h-217.105L1119.62 371.707l260.62-175.582zm0 0"/></clipPath><clipPath id="x"><path d="M1394 314h23v19h-23zm0 0"/></clipPath><clipPath id="y"><path d="M1440 284.824V525h-217.105L1119.62 371.707l260.62-175.582zm0 0"/></clipPath><clipPath id="z"><path d="M1216 434h23v19h-23zm0 0"/></clipPath><clipPath id="AA"><path d="M1440 284.824V525h-217.105L1119.62 371.707l260.62-175.582zm0 0"/></clipPath><clipPath id="AB"><path d="M1330 266h14v24h-14zm0 0"/></clipPath><clipPath id="AC"><path d="M1440 284.824V525h-217.105L1119.62 371.707l260.62-175.582zm0 0"/></clipPath><clipPath id="AD"><path d="M1289 476h14v25h-14zm0 0"/></clipPath><clipPath id="AE"><path d="M1440 284.824V525h-217.105L1119.62 371.707l260.62-175.582zm0 0"/></clipPath><clipPath id="AF"><path d="M1409 397h25v14h-25zm0 0"/></clipPath><clipPath id="AG"><path d="M1440 284.824V525h-217.105L1119.62 371.707l260.62-175.582zm0 0"/></clipPath><clipPath id="AH"><path d="M1199 356h25v14h-25zm0 0"/></clipPath><clipPath id="AI"><path d="M1440 284.824V525h-217.105L1119.62 371.707l260.62-175.582zm0 0"/></clipPath><clipPath id="AJ"><path d="M200.64 52.5h139.5V192h-139.5zm0 0"/></clipPath><clipPath id="AK"><path d="M888.46 196.023h139.5v139.5h-139.5zm0 0"/></clipPath><clipPath id="AL"><path d="M253.32 365.578h139.5v139.5h-139.5zm0 0"/></clipPath><clipPath id="AM"><path d="M426.152 196.023h139.5v139.5h-139.5zm0 0"/></clipPath><clipPath id="AN"><path d="M1049.773 52.5h139.5V192h-139.5zm0 0"/></clipPath><clipPath id="AO"><path d="M1049.773 365.578h139.5v139.5h-139.5zm0 0"/></clipPath><clipPath id="AP"><path d="M0 0h139.5v139.5H0zm0 0"/></clipPath><clipPath id="AQ"><path d="M1300.31 0h139.5v139.5h-139.5zm0 0"/></clipPath><path id="AR" d="M307.64 85.203c-.02-.016-.035-.035-.055-.055-3.168-3.04-3.28-8.07-.246-11.246s8.063-3.3 11.246-.277a7.97 7.97 0 0 1 .301 11.25 7.97 7.97 0 0 1-11.246.328zm0 0"/><path id="AS" d="M303.207 122.324c0 18.078-14.656 32.73-32.73 32.73s-32.73-14.652-32.73-32.73 14.652-32.727 32.73-32.727 32.73 14.652 32.73 32.727zm0 0"/><path id="AT" d="M233.418 85.094c-.016.02-.03.035-.05.055a7.97 7.97 0 0 1-11.25.25 7.97 7.97 0 0 1-.273-11.25c3.023-3.184 8.055-3.316 11.246-.3s3.34 8.047.328 11.246zm0 0"/><path id="AU" d="M233.61 159.63c2.852 3.152 2.633 8.016-.488 10.902s-7.984 2.723-10.906-.363a7.77 7.77 0 0 1 .238-10.914c3.055-2.957 7.922-2.906 10.914.113.086.086.168.172.242.262zm0 0"/><path id="AV" d="M217.996 122.258a7.8 7.8 0 0 1-7.797 7.797 7.8 7.8 0 0 1-7.801-7.797 7.8 7.8 0 0 1 7.801-7.797 7.8 7.8 0 0 1 7.797 7.797zm0 0"/><path id="AW" d="M443.508 265.785a7.8 7.8 0 0 1-7.797 7.797 7.8 7.8 0 0 1-7.797-7.797 7.8 7.8 0 0 1 7.797-7.797 7.8 7.8 0 0 1 7.797 7.797zm0 0"/><path id="AX" d="M69.836 35.426c-19 0-34.398 15.402-34.398 34.398s15.398 34.402 34.398 34.402 34.398-15.402 34.398-34.402c-.023-18.988-15.4-34.375-34.398-34.398zm0 65.46c-17.156 0-31.062-13.906-31.062-31.062s13.906-31.06 31.063-31.06 31.06 13.906 31.06 31.06c-.02 17.148-13.914 31.043-31.06 31.063zm0 0"/></defs><g clip-path="url(#A)" class="F"><path d="M0 0h1440v525H0z"/></g><path d="M0 0h1440v525H0zm0 0" class="F"/><path d="M0 0h1440v525H0zm0 0" class="D"/><g clip-path="url(#B)" class="E"><g clip-path="url(#C)"><path d="M69.96 439.04c-30.05-29.363-32.277-76.965-5.102-109.004s74.504-37.613 108.38-12.758 42.758 71.672 20.352 107.21-68.484 47.695-105.512 27.848c-3.594-1.937-7.04-4.14-10.3-6.594a79.83 79.83 0 0 1-7.816-6.703zm104.934-20.418c20.348-27.062 14.906-65.5-12.156-85.852s-65.496-14.9-85.848 12.152-14.914 65.496 12.148 85.852 65.504 14.9 85.855-12.152zm0 0"/></g></g><g clip-path="url(#D)" class="C"><g clip-path="url(#E)"><path d="M162.746 332.766c27.066 20.355 32.504 58.797 12.152 85.86s-58.797 32.504-85.86 12.148-32.5-58.797-12.145-85.86 58.79-32.496 85.852-12.148zm0 0"/></g></g><g clip-path="url(#F)" class="E"><g clip-path="url(#G)"><path d="M16.555 496.543l30.957 23.28-19.516 25.945-30.953-23.28zm0 0"/></g></g><g clip-path="url(#H)" class="E"><g clip-path="url(#I)"><path d="M55.71 444.484l30.953 23.28-39.152 52.06-30.957-23.28zm0 0"/></g></g><g clip-path="url(#J)" class="C"><g clip-path="url(#K)"><path d="M87.984 452.508l-7.805 10.38-17.984-13.523 7.766-10.324a79.83 79.83 0 0 0 7.816 6.703c3.262 2.453 6.707 4.656 10.3 6.594zm0 0"/></g></g><g clip-path="url(#L)" class="B"><g clip-path="url(#M)"><path d="M167.656 373.102c1.723-2.293 1.262-5.55-1.03-7.273l-35.676-26.836c-2.293-1.723-5.55-1.262-7.273 1.03a5.19 5.19 0 0 0 1.027 7.27l10.21 7.684c4.684 3.52 6.746 9.133 5.273 14.523l-20.56-15.46c-2.293-1.723-5.547-1.262-7.273 1.03s-1.262 5.547 1.03 7.273l20.57 15.47c-1.617 1.074-3.457 1.762-5.38 2.012a14.02 14.02 0 0 1-10.445-2.535l-10.21-7.684c-1.672-1.3-3.97-1.437-5.785-.344a5.11 5.11 0 0 0-2.391 5.277l7.39 43.293c.488 2.828 3.176 4.73 6.008 4.242s4.73-3.172 4.242-6l-5.187-30.437a24.48 24.48 0 0 0 30.41-1.312l6.453 4.852c2.293 1.727 5.55 1.266 7.273-1.027s1.266-5.55-1.027-7.273l-6.457-4.86c1.29-2.848 1.97-5.934 1.992-9.06l9.54 7.172a5.2 5.2 0 0 0 7.273-1.027zm0 0"/></g></g><g clip-path="url(#N)" class="B"><g clip-path="url(#O)"><path d="M165.87 328.617c-29.355-22.078-71.055-16.184-93.133 13.172s-16.18 71.055 13.176 93.133 71.05 16.18 93.133-13.18c22.03-29.363 16.137-71.023-13.176-93.125zM92.16 426.62c-24.773-18.63-29.754-53.812-11.125-78.582s53.813-29.754 78.586-11.125 29.75 53.813 11.12 78.582c-18.648 24.742-53.8 29.72-78.582 11.125zm0 0"/></g></g><g clip-path="url(#P)" class="B"><g clip-path="url(#Q)"><path d="M177.13 313.648c-37.566-28.254-91.152-20.715-119.402 16.848-24.738 32.832-22.496 78.64 5.324 108.902l-2.168 2.883-2.246-1.69a4.77 4.77 0 0 0-3.652-1.059c-1.31.172-2.488.88-3.254 1.957l-58.668 78.004c-.867 1.063-1.266 2.426-1.117 3.785a5.11 5.11 0 0 0 1.906 3.449l30.957 23.285c1.113.793 2.496 1.11 3.844.875s2.547-1 3.324-2.12l58.672-78.008c.82-1.035 1.176-2.363.977-3.672s-.937-2.473-2.03-3.21l-2.246-1.69 2.395-3.18c36.53 17.113 80.063 6.273 104.3-25.984 28.25-37.56 20.648-91.117-16.914-119.37zM26.73 538.457l-22.312-16.78 13.27-17.64L40 520.816zm19.516-25.945l-22.312-16.78 32.78-43.586 22.313 16.78zm22.94-63.988l1.4-1.875c1.496 1.25 2.703 2.227 4.06 3.246 1.867 1.406 3.695 2.648 5.887 4.055l-1.5 1.992zm72.504 6.414c-17.375 3.78-35.523 1.266-51.21-7.1-6.156-3.414-11.867-7.562-17.02-12.355l-.004-.004c-26.602-26.504-30.023-68.613-7.445-98.63 24.805-32.984 71.855-39.676 104.844-14.867a74.82 74.82 0 0 1 28.141 75.844c-6.277 28.61-28.672 50.93-57.305 57.102zm0 0"/></g></g><g clip-path="url(#R)" class="B"><g clip-path="url(#S)"><path d="M190.168 287.668l-8.195 10.895a5.2 5.2 0 0 0 1.027 7.273c2.293 1.727 5.55 1.266 7.273-1.027l8.2-10.898a5.2 5.2 0 0 0-1.031-7.273c-2.293-1.723-5.547-1.262-7.273 1.03zm0 0"/></g></g><g clip-path="url(#T)" class="B"><g clip-path="url(#U)"><path d="M219.563 446.262l-10.898-8.195c-2.293-1.727-5.547-1.266-7.273 1.027s-1.262 5.55 1.03 7.273l10.895 8.195c2.293 1.727 5.55 1.266 7.273-1.027s1.266-5.55-1.027-7.273zm0 0"/></g></g><g clip-path="url(#V)" class="B"><g clip-path="url(#W)"><path d="M48.324 317.473l-10.895-8.195c-2.293-1.723-5.55-1.266-7.273 1.027s-1.266 5.55 1.027 7.273l10.898 8.195c2.293 1.727 5.55 1.266 7.273-1.027s1.262-5.55-1.03-7.273zm0 0"/></g></g><g clip-path="url(#X)" class="B"><g clip-path="url(#Y)"><path d="M237.578 361.05l-13.5 1.906c-2.84.402-4.816 3.03-4.414 5.875s3.027 4.816 5.867 4.418l13.504-1.914c2.84-.402 4.816-3.03 4.414-5.87a5.2 5.2 0 0 0-5.871-4.414zm0 0"/></g></g><g clip-path="url(#Z)" class="B"><g clip-path="url(#a)"><path d="M25.438 391.063l-13.504 1.9a5.2 5.2 0 0 0-4.414 5.871 5.2 5.2 0 0 0 5.871 4.418l13.5-1.914c2.84-.402 4.816-3.027 4.414-5.87-.398-2.836-3.027-4.816-5.867-4.414zm0 0"/></g></g><g clip-path="url(#b)" class="B"><g clip-path="url(#c)"><path d="M144.313 480.473c-.402-2.844-3.03-4.82-5.87-4.418s-4.816 3.03-4.414 5.87l1.906 13.5c.402 2.844 3.03 4.82 5.875 4.418s4.816-3.027 4.414-5.87zm0 0"/></g></g><g clip-path="url(#d)" class="B"><g clip-path="url(#e)"><path d="M105.918 283.285c.406 2.84 3.035 4.816 5.875 4.418 2.836-.406 4.816-3.035 4.414-5.87l-1.9-13.504c-.402-2.84-3.03-4.816-5.87-4.414s-4.816 3.03-4.414 5.87zm0 0"/></g></g><g clip-path="url(#f)" class="E"><g clip-path="url(#g)"><path d="M1352.273 454.22c-37.574 18.8-83.29 5.34-104.68-30.82s-11.187-82.703 23.38-106.6 81.71-16.977 107.97 15.816c26.262 32.8 22.688 80.316-8.18 108.82a81.58 81.58 0 0 1-9.598 7.578c-2.848 1.922-5.82 3.656-8.89 5.195zm15.012-105.844c-18.922-28.078-57.023-35.504-85.105-16.582s-35.508 57.023-16.586 85.105 57.02 35.508 85.105 16.6 35.508-57.027 16.586-85.113zm0 0"/></g></g><g clip-path="url(#h)" class="C"><g clip-path="url(#i)"><path d="M1282.18 331.785c28.086-18.922 66.19-11.496 85.113 16.6s11.492 66.19-16.594 85.11-66.19 11.492-85.11-16.594-11.492-66.184 16.6-85.105zm0 0"/></g></g><g clip-path="url(#j)" class="E"><g clip-path="url(#k)"><path d="M1389.156 523.488l32.12-21.64 18.14 26.926-32.125 21.64zm0 0"/></g></g><g clip-path="url(#l)" class="E"><g clip-path="url(#m)"><path d="M1352.758 469.465l32.125-21.64 36.395 54.023-32.12 21.64zm0 0"/></g></g><g clip-path="url(#n)" class="C"><g clip-path="url(#o)"><path d="M1370.895 441.6l7.258 10.77-18.664 12.57-7.215-10.71c3.07-1.54 6.043-3.273 8.89-5.195a81.58 81.58 0 0 0 9.598-7.578zm0 0"/></g></g><g clip-path="url(#p)" class="B"><g clip-path="url(#q)"><path d="M1321.902 340.336c-1.605-2.38-4.832-3.012-7.21-1.406l-37.023 24.94a5.19 5.19 0 0 0-1.406 7.211c1.602 2.38 4.828 3.008 7.207 1.406l10.598-7.14c4.86-3.273 10.84-3.387 15.453-.23l-21.332 14.37a5.2 5.2 0 0 0-1.406 7.211 5.2 5.2 0 0 0 7.211 1.406l21.344-14.383a12.73 12.73 0 0 1 .145 5.742 14.05 14.05 0 0 1-5.812 9.039l-10.598 7.137c-1.777 1.156-2.656 3.285-2.22 5.355a5.11 5.11 0 0 0 4.203 3.988l43.332 7.168c2.832.465 5.508-1.453 5.977-4.29s-1.453-5.508-4.29-5.977l-30.457-5.047c9.328-6.516 12.934-18.605 8.7-29.168l6.7-4.512a5.2 5.2 0 0 0 1.406-7.211 5.2 5.2 0 0 0-7.211-1.406l-6.703 4.516c-2.27-2.148-4.965-3.8-7.9-4.848l9.898-6.668c2.38-1.602 3.008-4.828 1.406-7.207zm0 0"/></g></g><g clip-path="url(#r)" class="B"><g clip-path="url(#s)"><path d="M1279.277 327.477c-30.465 20.523-38.523 61.855-18 92.32s61.855 38.523 92.32 18 38.523-61.86 17.996-92.324c-20.547-30.422-61.844-38.473-92.316-17.996zm68.52 101.703c-25.707 17.32-60.582 10.523-77.902-15.18s-10.52-60.586 15.184-77.902 60.582-10.52 77.898 15.18c17.28 25.715 10.492 60.563-15.18 77.902zm0 0"/></g></g><g clip-path="url(#t)" class="B"><g clip-path="url(#u)"><path d="M1268.813 311.945c-38.98 26.262-49.38 79.367-23.117 118.348 22.94 34.11 66.965 46.97 104.66 30.574l2.012 2.988-2.328 1.57c-1.133.684-1.93 1.813-2.2 3.105a4.77 4.77 0 0 0 .789 3.719l54.535 80.945a5.09 5.09 0 0 0 7.094 1.617l32.125-21.64a5.12 5.12 0 0 0 2.086-3.348c.22-1.348-.113-2.73-.922-3.836l-54.535-80.945a4.75 4.75 0 0 0-3.148-2.129 4.77 4.77 0 0 0-3.703.871l-2.328 1.57-2.227-3.3c28.12-28.93 32.11-73.613 9.55-107.066-26.262-38.977-79.36-49.31-118.344-23.043zm163.28 215.633l-23.156 15.598-12.332-18.305 23.152-15.602zm-18.14-26.922l-23.152 15.598-30.473-45.23 23.152-15.602zm-52.97-42.602l-1.312-1.95c1.672-1.008 2.988-1.828 4.395-2.773 1.938-1.31 3.71-2.625 5.758-4.238l1.39 2.066zm29.766-66.426a74.97 74.97 0 0 1-23.445 46.078c-5.234 4.7-11.023 8.742-17.238 12.043l-.004.004c-33.746 16.473-74.66 5.94-95.645-25.21-23.06-34.227-14-80.88 20.23-103.94 24.285-16.38 55.89-17.082 80.875-1.797a74.81 74.81 0 0 1 35.227 72.824zm0 0"/></g></g><g clip-path="url(#v)" class="B"><g clip-path="url(#w)"><path d="M1248.523 291.125l7.62 11.31c1.602 2.38 4.828 3.008 7.207 1.406a5.2 5.2 0 0 0 1.406-7.211l-7.617-11.31a5.2 5.2 0 0 0-7.211-1.406 5.2 5.2 0 0 0-1.406 7.211zm0 0"/></g></g><g clip-path="url(#x)" class="B"><g clip-path="url(#y)"><path d="M1408.012 315.203l-11.31 7.617a5.2 5.2 0 0 0-1.406 7.211 5.2 5.2 0 0 0 7.211 1.406l11.31-7.62c2.38-1.602 3.008-4.828 1.406-7.21s-4.832-3.008-7.21-1.402zm0 0"/></g></g><g clip-path="url(#z)" class="B"><g clip-path="url(#AA)"><path d="M1230.316 434.918l-11.31 7.617a5.2 5.2 0 0 0-1.406 7.211 5.2 5.2 0 0 0 7.211 1.406l11.305-7.62c2.383-1.602 3.012-4.828 1.406-7.207a5.19 5.19 0 0 0-7.207-1.406zm0 0"/></g></g><g clip-path="url(#AB)" class="B"><g clip-path="url(#AC)"><path d="M1333.375 270.313l-2.61 13.383c-.55 2.816 1.29 5.547 4.105 6.094s5.543-1.29 6.094-4.102l2.605-13.383c.55-2.816-1.29-5.547-4.102-6.094s-5.543 1.29-6.094 4.105zm0 0"/></g></g><g clip-path="url(#AD)" class="B"><g clip-path="url(#AE)"><path d="M1292.375 480.61l-2.61 13.383c-.547 2.816 1.293 5.543 4.105 6.094s5.543-1.29 6.094-4.105l2.61-13.383c.547-2.816-1.29-5.543-4.105-6.1s-5.543 1.285-6.094 4.102zm0 0"/></g></g><g clip-path="url(#AF)" class="B"><g clip-path="url(#AG)"><path d="M1415.738 397.5c-2.816-.547-5.543 1.29-6.1 4.105a5.19 5.19 0 0 0 4.102 6.09l13.383 2.613c2.816.547 5.547-1.29 6.094-4.105s-1.285-5.543-4.105-6.094zm0 0"/></g></g><g clip-path="url(#AH)" class="B"><g clip-path="url(#AI)"><path d="M1216.836 369.313c2.816.547 5.543-1.293 6.094-4.105a5.2 5.2 0 0 0-4.105-6.094l-13.383-2.61c-2.816-.547-5.543 1.29-6.1 4.105a5.19 5.19 0 0 0 4.102 6.09zm0 0"/></g></g><g class="B"><path d="M322.965 121.98c.203-4.223 3.773-7.496 8-7.328a7.71 7.71 0 0 1 7.402 7.93 7.71 7.71 0 0 1-7.867 7.473c-4.227-.086-7.594-3.566-7.543-7.797 0-.094.004-.184.008-.277zm0 0"/><use xlink:href="#AR"/><path d="M307.844 159.125a7.76 7.76 0 1 1 10.539 11.394 7.75 7.75 0 0 1-10.9-.238c-2.947-3.054-2.906-7.922.113-10.914.082-.086.172-.164.258-.242zm-69.484-4.245a45.57 45.57 0 0 1-13.617-32.555v-.066c.043-25.012 20.168-45.352 45.176-45.664h.56c25.12.004 45.54 20.266 45.73 45.387.004.113.004.23.004.344-.004 25.258-20.477 45.734-45.734 45.734h-.277c-11.93-.06-23.36-4.8-31.84-13.18zm64.848-32.555c0-18.074-14.656-32.727-32.73-32.727s-32.73 14.652-32.73 32.727 14.652 32.73 32.73 32.73 32.73-14.652 32.73-32.73zm0 0"/></g><use xlink:href="#AS" class="D"/><g class="B"><path d="M269.918 69.754c-4.22-.32-7.406-3.965-7.16-8.2a7.77 7.77 0 0 1 8.06-7.31 7.77 7.77 0 0 1 7.457 7.93c-.094 4.234-3.562 7.613-7.797 7.594a5.3 5.3 0 0 1-.559-.023zm.282 104.996c.1-.008.184-.008.277-.008a7.9 7.9 0 0 1 7.992 7.727 7.9 7.9 0 0 1-7.656 8.059 7.9 7.9 0 0 1-8.129-7.586c-.168-4.328 3.188-7.988 7.516-8.2zm0 0"/><use xlink:href="#AT"/><use xlink:href="#AU"/><use xlink:href="#AV"/></g><path d="M281.445 106.12a1.67 1.67 0 0 0 1.668-1.672c0-.922-.746-1.668-1.668-1.668h-21.937a1.67 1.67 0 0 0-1.672 1.668c0 .922.75 1.672 1.672 1.672h6.277c3.695 0 6.797 2.504 7.56 5.844h-13.836a1.67 1.67 0 0 0-1.672 1.668 1.67 1.67 0 0 0 1.672 1.668h13.84c-.262 1.473-.992 2.816-2.1 3.832-1.445 1.465-3.414 2.29-5.473 2.293h-6.277a1.7 1.7 0 0 0-1.551 1.074c-.254.64-.094 1.37.402 1.848l15.69 14.832a1.67 1.67 0 0 0 1.195.457 1.66 1.66 0 0 0 1.164-.52c.637-.68.605-1.742-.066-2.387l-12.64-11.97h2.082a11.02 11.02 0 0 0 7.836-3.27 10.52 10.52 0 0 0 3.121-6.191h4.703c.922 0 1.668-.746 1.668-1.668s-.746-1.668-1.668-1.668h-4.703c-.355-2.227-1.45-4.453-3.04-5.844zm0 0" class="C"/><g clip-path="url(#AJ)" class="C"><path d="M330.754 112.793a9.42 9.42 0 0 0-9.262 7.52h-3.66a47.04 47.04 0 0 0-12.66-30.277l2.586-2.586c4.043 2.758 9.527 1.973 12.633-1.812a9.45 9.45 0 0 0-.684-12.742c-3.492-3.434-9.027-3.625-12.754-.453a9.46 9.46 0 0 0-1.578 12.668l-2.562 2.563a47.01 47.01 0 0 0-31.223-12.734v-3.56a9.47 9.47 0 0 0 8.359-9.676c-.137-4.902-4-8.89-8.895-9.187a9.48 9.48 0 0 0-9.941 8.051c-.727 4.852 2.367 9.457 7.137 10.613v3.797c-11.18.5-21.812 4.96-29.996 12.6l-2.6-2.586c2.453-3.594 2.14-8.395-.754-11.637a9.46 9.46 0 0 0-16.242 8.578 9.46 9.46 0 0 0 9.188 7.184c1.96.004 3.87-.605 5.47-1.742l2.563 2.56c-7.852 8.324-12.395 19.23-12.777 30.668h-3.594a9.47 9.47 0 0 0-18.785 1.668c0 4.906 3.742 8.996 8.63 9.43a9.47 9.47 0 0 0 10.156-7.758h3.6a47 47 0 0 0 12.906 30.938l-2.457 2.457c-3.77-2.844-9.06-2.477-12.395.863-3.512 3.512-3.715 9.137-.465 12.89a9.47 9.47 0 0 0 15.129-11.301l2.566-2.566a47.07 47.07 0 0 0 30.137 12.473v3.6c-4.797 1.012-8.027 5.516-7.445 10.387s4.78 8.484 9.684 8.336 8.875-4.012 9.16-8.906a9.46 9.46 0 0 0-8.059-9.914v-3.473a47 47 0 0 0 31.219-12.98l2.453 2.457c-2.953 3.918-2.426 9.438 1.21 12.73s9.184 3.254 12.785-.078 4.055-8.86 1.055-12.742a9.47 9.47 0 0 0-12.598-2.18l-2.566-2.566c7.727-8.387 12.145-19.293 12.434-30.69h3.53c.742 4.992 5.27 8.523 10.293 8.027s8.773-4.844 8.523-9.887-4.406-9-9.453-9zM210.2 128.387a6.13 6.13 0 0 1-6.129-6.129c0-3.383 2.742-6.125 6.13-6.125s6.125 2.742 6.125 6.125-2.746 6.125-6.125 6.13zM308.766 75.3a6.13 6.13 0 0 1 8.695 8.637c-2.37 2.406-6.238 2.438-8.652.074-.012-.016-.03-.03-.047-.047-2.39-2.39-2.39-6.27.004-8.664zm-44.418-13.32c0-3.383 2.746-6.13 6.13-6.13a6.13 6.13 0 0 1 6.125 6.129c0 3.387-2.742 6.13-6.125 6.13a4.05 4.05 0 0 1-.406-.016l-.035-.004a6.14 6.14 0 0 1-5.687-6.109zM223.52 83.97a6.13 6.13 0 0 1 8.637-8.695 6.13 6.13 0 0 1 .074 8.652l-.047.047c-2.395 2.39-6.273 2.39-8.664-.004zm8.668 85.25c-2.395 2.39-6.273 2.39-8.668-.004s-2.395-6.273 0-8.664a6.11 6.11 0 0 1 4.348-1.797c1.63 0 3.19.656 4.336 1.813a1.95 1.95 0 0 1 .152.16c.008.008.016.02.023.027 2.215 2.418 2.133 6.152-.19 8.465zm44.414 13.32c.004 3.355-2.695 6.086-6.05 6.13s-6.12-2.625-6.2-5.98a6.13 6.13 0 0 1 5.906-6.27c.012 0 .027 0 .04-.004.06-.004.117-.004.18-.004 3.383.004 6.125 2.746 6.125 6.13zm40.832-21.988a6.13 6.13 0 0 1-8.668 8.668 6.13 6.13 0 0 1 0-8.668c.008-.008.012-.016.02-.023a2.88 2.88 0 0 1 .16-.148l.027-.023c2.414-2.22 6.148-2.133 8.46.195zm-15.527-7.285a43.8 43.8 0 0 1-31.43 13.238h-.27c-11.555-.277-22.45-4.637-30.676-12.754l.047-.027c-8.4-8.277-13.12-19.598-13.07-31.398v-.062c-.012-24.094 19.37-43.707 43.46-43.98.168-.004.313.012.484.012h.023c24.2-.012 43.875 19.508 44.06 43.707v.027c.004.098.004.23.004.328a43.87 43.87 0 0 1-12.633 30.91zm28.848-24.88c-3.383-.004-6.125-2.746-6.125-6.13 0-.06 0-.117.004-.176v-.043a6.13 6.13 0 0 1 6.273-5.902 6.13 6.13 0 0 1 5.977 6.199 6.13 6.13 0 0 1-6.129 6.051zm0 0"/></g><path d="M270.477 87.926c-19 0-34.398 15.402-34.398 34.398s15.398 34.402 34.398 34.402 34.398-15.402 34.398-34.402c-.02-18.988-15.4-34.375-34.398-34.398zm0 65.46c-17.156 0-31.06-13.906-31.06-31.062s13.902-31.06 31.06-31.06 31.06 13.906 31.06 31.06c-.02 17.148-13.914 31.043-31.06 31.063zm0 0" class="C"/><path d="M1010.785 265.504a7.71 7.71 0 0 1 8-7.328 7.71 7.71 0 0 1 7.402 7.93 7.71 7.71 0 0 1-7.867 7.473c-4.227-.086-7.594-3.566-7.543-7.793 0-.098.004-.187.008-.28zm-15.325-36.777a.62.62 0 0 1-.055-.05 7.97 7.97 0 0 1-.246-11.25c3.034-3.176 8.063-3.3 11.246-.273s3.32 8.055.3 11.246a7.97 7.97 0 0 1-11.246.328zm.204 73.92a7.76 7.76 0 0 1 10.902.488c2.886 3.12 2.727 7.984-.363 10.9s-7.953 2.813-10.9-.242a7.76 7.76 0 0 1 .113-10.91c.082-.086.172-.168.258-.246zm-69.484-4.242c-8.727-8.586-13.633-20.316-13.617-32.555v-.066c.043-25.016 20.168-45.355 45.176-45.664l.56-.004c25.12.004 45.54 20.27 45.73 45.387a10.18 10.18 0 0 1 .004.348c-.004 25.254-20.477 45.73-45.734 45.73h-.277a45.6 45.6 0 0 1-31.84-13.176zm64.848-32.555c0-18.078-14.656-32.73-32.73-32.73s-32.73 14.652-32.73 32.73 14.656 32.727 32.73 32.727 32.73-14.652 32.73-32.727zm0 0" class="B"/><path d="M991.027 265.852c0 18.074-14.656 32.727-32.73 32.727s-32.73-14.652-32.73-32.727 14.656-32.73 32.73-32.73 32.73 14.652 32.73 32.73zm0 0" class="D"/><path d="M957.738 213.28c-4.22-.32-7.406-3.965-7.16-8.195s3.828-7.477 8.06-7.3 7.55 3.695 7.457 7.93-3.562 7.613-7.797 7.594a6.52 6.52 0 0 1-.56-.02zm.282 104.993c.1-.008.184-.008.277-.008a7.9 7.9 0 0 1 7.992 7.727 7.9 7.9 0 0 1-7.656 8.059 7.9 7.9 0 0 1-8.129-7.586 7.9 7.9 0 0 1 7.516-8.191zm-36.782-89.656l-.05.06a7.97 7.97 0 0 1-11.25.246 7.97 7.97 0 0 1-.273-11.25c3.023-3.184 8.055-3.316 11.246-.3s3.34 8.047.328 11.246zm.192 74.535a7.76 7.76 0 0 1-.488 10.902c-3.12 2.886-7.984 2.723-10.906-.363a7.75 7.75 0 0 1 .238-10.9c3.054-2.947 7.922-2.9 10.914.113.086.082.168.168.242.258zm-15.614-37.367a7.8 7.8 0 0 1-7.797 7.797 7.8 7.8 0 0 1-7.797-7.797c0-4.3 3.488-7.797 7.797-7.797a7.8 7.8 0 0 1 7.797 7.797zm0 0" class="B"/><path d="M969.266 249.645c.922 0 1.672-.75 1.672-1.672a1.67 1.67 0 0 0-1.672-1.668h-21.937a1.67 1.67 0 0 0-1.672 1.668c0 .922.75 1.672 1.672 1.672h6.277c3.695 0 6.797 2.504 7.56 5.844h-13.836a1.67 1.67 0 0 0-1.672 1.668c0 .922.75 1.672 1.672 1.672h13.84c-.262 1.47-.992 2.813-2.1 3.828-1.445 1.465-3.414 2.29-5.473 2.293h-6.277c-.687.012-1.3.438-1.55 1.078a1.69 1.69 0 0 0 .402 1.844l15.69 14.832a1.67 1.67 0 0 0 1.195.457 1.66 1.66 0 0 0 1.164-.52c.637-.68.605-1.742-.066-2.387l-12.637-11.965h2.078c2.94-.004 5.766-1.18 7.836-3.27a10.53 10.53 0 0 0 3.121-6.191h4.703c.922 0 1.672-.75 1.672-1.672a1.67 1.67 0 0 0-1.672-1.668h-4.703c-.355-2.227-1.45-4.453-3.04-5.844zm0 0" class="C"/><g clip-path="url(#AK)" class="C"><path d="M1018.574 256.316c-4.484-.016-8.355 3.13-9.262 7.52h-3.66a47.04 47.04 0 0 0-12.66-30.277l2.586-2.586c4.043 2.758 9.527 1.973 12.633-1.812a9.45 9.45 0 0 0-.684-12.742c-3.492-3.43-9.027-3.625-12.754-.45s-4.4 8.672-1.578 12.664l-2.562 2.563a47.01 47.01 0 0 0-31.223-12.734v-3.56a9.47 9.47 0 0 0-.535-18.859c-4.898-.297-9.21 3.195-9.94 8.047s2.367 9.457 7.137 10.613v3.797c-11.176.5-21.812 4.965-29.996 12.6l-2.6-2.586c2.453-3.594 2.14-8.395-.754-11.637s-7.633-4.098-11.477-2.062a9.46 9.46 0 0 0 4.422 17.824c1.96.004 3.87-.605 5.47-1.742l2.563 2.56c-7.852 8.328-12.395 19.23-12.777 30.668h-3.594a9.47 9.47 0 0 0-10.156-7.758c-4.887.434-8.63 4.523-8.63 9.43s3.742 8.996 8.63 9.43 9.29-2.937 10.156-7.762h3.6c.352 11.55 4.95 22.563 12.906 30.938l-2.457 2.457c-3.77-2.844-9.06-2.477-12.395.863-3.512 3.512-3.715 9.14-.465 12.895a9.47 9.47 0 0 0 15.129-11.305l2.566-2.566a47.07 47.07 0 0 0 30.137 12.473v3.6a9.47 9.47 0 0 0-7.445 10.387c.582 4.867 4.78 8.484 9.684 8.336s8.875-4.012 9.16-8.906a9.46 9.46 0 0 0-8.059-9.914v-3.473c11.656-.305 22.78-4.93 31.22-12.977l2.453 2.453c-2.953 3.918-2.426 9.44 1.21 12.73s9.184 3.254 12.785-.078a9.47 9.47 0 0 0 1.055-12.738c-3-3.88-8.465-4.828-12.598-2.184l-2.566-2.566c7.727-8.387 12.145-19.293 12.434-30.69h3.53c.742 4.992 5.27 8.523 10.293 8.027a9.47 9.47 0 0 0 8.527-9.887c-.25-5.04-4.4-9-9.457-9zM898.02 271.9c-3.387 0-6.13-2.742-6.13-6.125a6.13 6.13 0 0 1 6.129-6.129c3.383 0 6.125 2.742 6.125 6.13s-2.746 6.12-6.125 6.125zm98.566-53.082c2.387-2.39 6.258-2.398 8.652-.016a6.13 6.13 0 0 1 .047 8.648c-2.375 2.406-6.242 2.438-8.656.074-.012-.016-.03-.03-.047-.047-2.39-2.39-2.39-6.27.004-8.66zm-44.418-13.324a6.13 6.13 0 0 1 6.129-6.125c3.383 0 6.125 2.742 6.125 6.125s-2.742 6.13-6.125 6.13a4.05 4.05 0 0 1-.406-.016l-.035-.004a6.14 6.14 0 0 1-5.687-6.109zm-40.828 21.988c-2.387-2.387-2.395-6.254-.016-8.648s6.246-2.418 8.652-.047a6.13 6.13 0 0 1 .074 8.652l-.047.047c-2.395 2.395-6.273 2.39-8.664-.004zm8.668 85.25c-2.395 2.39-6.273 2.39-8.668-.004s-2.395-6.27 0-8.664c1.152-1.152 2.715-1.8 4.348-1.797a6.11 6.11 0 0 1 4.336 1.816 1.91 1.91 0 0 1 .152.156c.008.012.016.02.023.027a6.11 6.11 0 0 1-.191 8.465zm44.414 13.32c.004 3.355-2.695 6.086-6.05 6.13s-6.12-2.625-6.2-5.977a6.13 6.13 0 0 1 5.906-6.273h.04c.063-.004.12-.008.18-.008 3.383.004 6.125 2.746 6.125 6.13zm40.832-21.988a6.13 6.13 0 0 1-8.668 8.668 6.13 6.13 0 0 1 0-8.668c.008-.008.012-.016.02-.02.05-.055.105-.102.16-.148l.027-.027a6.11 6.11 0 0 1 8.461.195zm-15.527-7.285a43.8 43.8 0 0 1-31.43 13.238h-.27c-11.555-.277-22.45-4.637-30.676-12.754l.047-.027c-8.4-8.277-13.12-19.598-13.07-31.395v-.066c-.012-24.1 19.37-43.703 43.46-43.98.168-.004.313.012.484.012h.023c24.2-.012 43.875 19.508 44.06 43.707v.027a9.41 9.41 0 0 1 .004.332 43.87 43.87 0 0 1-12.633 30.906zm28.848-24.88a6.13 6.13 0 0 1-6.125-6.125c0-.062 0-.12.004-.18 0-.012 0-.027.004-.043.117-3.352 2.914-5.984 6.27-5.902s6.016 2.848 5.977 6.2a6.13 6.13 0 0 1-6.129 6.051zm0 0"/></g><path d="M958.297 231.45c-19 0-34.398 15.402-34.398 34.402s15.398 34.398 34.398 34.398 34.398-15.402 34.398-34.398c-.02-18.992-15.4-34.38-34.398-34.402zm0 65.46c-17.152 0-31.06-13.906-31.06-31.06s13.906-31.062 31.06-31.062 31.06 13.906 31.06 31.063c-.02 17.145-13.914 31.04-31.06 31.06zm0 0" class="C"/><path d="M375.645 435.06a7.71 7.71 0 0 1 7.996-7.332 7.71 7.71 0 0 1 7.402 7.934c-.125 4.227-3.637 7.563-7.863 7.473a7.71 7.71 0 0 1-7.543-7.797 6.39 6.39 0 0 1 .008-.277zm-15.325-36.78l-.055-.055a7.97 7.97 0 0 1-.246-11.25c3.03-3.176 8.063-3.297 11.246-.273s3.32 8.055.3 11.246a7.97 7.97 0 0 1-11.246.332zm.203 73.92c3.156-2.848 8.016-2.63 10.902.492a7.76 7.76 0 0 1-.363 10.906c-3.1 2.922-7.953 2.816-10.9-.238s-2.906-7.922.113-10.914c.082-.086.168-.164.258-.246zm-69.483-4.243a45.58 45.58 0 0 1-13.617-32.555v-.066c.04-25.012 20.168-45.355 45.176-45.664l.56-.004c25.12.004 45.535 20.27 45.73 45.4v.344c0 25.258-20.477 45.73-45.73 45.73h-.28a45.56 45.56 0 0 1-31.836-13.176zm64.848-32.555c0-18.074-14.656-32.73-32.73-32.73s-32.73 14.656-32.73 32.73 14.652 32.73 32.73 32.73 32.73-14.652 32.73-32.73zm0 0" class="B"/><path d="M355.887 435.402c0 18.078-14.656 32.73-32.73 32.73s-32.73-14.652-32.73-32.73 14.652-32.73 32.73-32.73 32.73 14.656 32.73 32.73zm0 0" class="D"/><g class="B"><path d="M322.598 382.832a7.77 7.77 0 0 1-7.164-8.191 7.77 7.77 0 0 1 8.063-7.31c4.23.17 7.547 3.695 7.453 7.93s-3.56 7.6-7.793 7.594a6.61 6.61 0 0 1-.559-.023zm.277 104.992l.28-.008c4.332-.055 7.898 3.395 7.988 7.73a7.9 7.9 0 0 1-7.656 8.059 7.9 7.9 0 0 1-8.125-7.586c-.168-4.332 3.184-7.988 7.512-8.195zm-36.777-89.652a.62.62 0 0 1-.05.055 7.97 7.97 0 0 1-11.25.246c-3.176-3.034-3.3-8.062-.273-11.246s8.055-3.32 11.246-.3a7.97 7.97 0 0 1 .328 11.246zm.192 74.53c2.852 3.156 2.633 8.02-.488 10.902a7.76 7.76 0 0 1-10.906-.363 7.75 7.75 0 0 1 .238-10.9c3.054-2.947 7.922-2.906 10.914.113.086.086.164.172.242.258zm0 0"/><use xlink:href="#AV" x="52.68" y="313.078"/></g><path d="M334.125 419.195c.922 0 1.668-.746 1.668-1.668s-.746-1.668-1.668-1.668h-21.937a1.67 1.67 0 0 0-1.672 1.668 1.67 1.67 0 0 0 1.672 1.668h6.277c3.695 0 6.793 2.504 7.56 5.844h-13.836a1.67 1.67 0 1 0 0 3.34h13.84c-.262 1.47-.992 2.816-2.1 3.828-1.445 1.465-3.418 2.293-5.473 2.293h-6.277c-.687.012-1.3.438-1.55 1.078a1.69 1.69 0 0 0 .402 1.844l15.69 14.832c.32.305.75.47 1.19.46a1.66 1.66 0 0 0 1.168-.523c.637-.68.605-1.742-.066-2.383l-12.64-11.97h2.082a11.02 11.02 0 0 0 7.836-3.27c1.707-1.652 2.81-3.836 3.12-6.19h4.703c.922 0 1.668-.746 1.668-1.668a1.67 1.67 0 0 0-1.668-1.672h-4.703c-.355-2.227-1.453-4.45-3.04-5.844zm0 0" class="C"/><g clip-path="url(#AL)" class="C"><path d="M383.434 425.87c-4.484-.02-8.36 3.125-9.262 7.516h-3.66a47.06 47.06 0 0 0-12.66-30.277l2.586-2.586a9.45 9.45 0 0 0 12.633-1.809c3.105-3.785 2.813-9.316-.684-12.746s-9.027-3.625-12.754-.45-4.4 8.672-1.578 12.664l-2.562 2.563c-8.477-7.957-19.602-12.492-31.223-12.734v-3.555c4.87-.574 8.5-4.773 8.36-9.676s-4-8.89-8.898-9.187-9.207 3.2-9.937 8.047 2.367 9.457 7.137 10.613v3.8c-11.18.496-21.812 4.96-29.996 12.6l-2.6-2.6a9.46 9.46 0 0 0-12.23-13.699A9.46 9.46 0 0 0 271.348 395c1.047 4.22 4.836 7.184 9.188 7.184 1.96.004 3.87-.605 5.47-1.746l2.56 2.563c-7.848 8.324-12.39 19.23-12.773 30.668h-3.598c-.863-4.828-5.27-8.195-10.152-7.762s-8.63 4.527-8.63 9.43 3.742 8.996 8.63 9.43 9.29-2.934 10.152-7.762h3.6c.355 11.55 4.95 22.563 12.9 30.938l-2.457 2.46c-3.77-2.848-9.06-2.477-12.398.863a9.47 9.47 0 0 0 12.363 14.281c3.977-2.973 4.984-8.512 2.305-12.695l2.563-2.562c8.242 7.613 18.93 12.04 30.14 12.473v3.6c-4.797 1.012-8.027 5.516-7.445 10.383s4.78 8.484 9.68 8.34 8.88-4.016 9.164-8.906-3.21-9.2-8.06-9.918v-3.47a46.98 46.98 0 0 0 31.215-12.98l2.457 2.457a9.47 9.47 0 0 0 1.211 12.727c3.637 3.293 9.184 3.258 12.78-.074a9.47 9.47 0 0 0 1.059-12.742c-3-3.88-8.47-4.824-12.598-2.18l-2.566-2.566c7.723-8.39 12.145-19.297 12.434-30.695h3.53a9.47 9.47 0 0 0 10.293 8.031c5.023-.496 8.773-4.848 8.523-9.887s-4.406-9-9.453-9zM262.88 441.465a6.13 6.13 0 0 1-6.129-6.129 6.13 6.13 0 0 1 6.129-6.129 6.13 6.13 0 0 1 6.125 6.129c-.004 3.383-2.746 6.125-6.125 6.13zm98.566-53.086a6.13 6.13 0 0 1 8.695 8.637 6.13 6.13 0 0 1-8.652.074l-.047-.047c-2.39-2.395-2.39-6.273.004-8.664zm-44.418-13.32a6.13 6.13 0 0 1 6.129-6.129c3.383 0 6.125 2.742 6.125 6.13s-2.742 6.125-6.125 6.125a4.05 4.05 0 0 1-.406-.016h-.035c-3.2-.238-5.68-2.898-5.687-6.11zM276.2 397.047a6.13 6.13 0 0 1 8.637-8.695c2.402 2.37 2.438 6.238.074 8.648-.016.02-.035.035-.047.05-2.395 2.39-6.273 2.39-8.664-.004zm8.668 85.246a6.13 6.13 0 0 1-8.668-8.668c1.152-1.152 2.715-1.8 4.348-1.797a6.11 6.11 0 0 1 4.336 1.816 1.95 1.95 0 0 1 .152.16.17.17 0 0 1 .023.027 6.11 6.11 0 0 1-.191 8.461zm44.414 13.32a6.13 6.13 0 0 1-6.051 6.133c-3.355.04-6.12-2.625-6.2-5.98a6.13 6.13 0 0 1 5.902-6.273h.043c.06-.004.117-.004.18-.004a6.13 6.13 0 0 1 6.125 6.125zm40.832-21.988a6.13 6.13 0 0 1-8.668 8.668 6.13 6.13 0 0 1 0-8.668c.008-.004.012-.012.02-.02a2.88 2.88 0 0 1 .16-.148l.027-.027a6.11 6.11 0 0 1 8.461.195zm-15.527-7.285a43.81 43.81 0 0 1-31.43 13.242h-.27c-11.555-.28-22.45-4.637-30.676-12.754l.047-.03a43.77 43.77 0 0 1-13.07-31.395v-.062c-.012-24.094 19.37-43.707 43.46-43.984.168 0 .313.016.484.016h.023c24.2-.012 43.875 19.504 44.06 43.707v.023c.004.102.004.23.004.332.027 11.566-4.512 22.672-12.633 30.9zm28.848-24.875a6.14 6.14 0 0 1-6.129-6.129c0-.06.004-.117.008-.176v-.043c.12-3.355 2.918-5.984 6.27-5.902a6.13 6.13 0 0 1 5.98 6.199 6.13 6.13 0 0 1-6.129 6.051zm0 0"/></g><path d="M323.156 401.004c-19 0-34.398 15.398-34.398 34.398s15.398 34.398 34.398 34.398 34.398-15.398 34.398-34.398c-.023-18.988-15.4-34.375-34.398-34.398zm0 65.46c-17.156 0-31.062-13.906-31.062-31.062s13.906-31.06 31.063-31.06 31.06 13.906 31.06 31.06c-.02 17.148-13.914 31.043-31.06 31.063zm0 0" class="C"/><path d="M548.48 265.504c.2-4.223 3.77-7.492 7.996-7.328a7.71 7.71 0 0 1 7.402 7.93 7.71 7.71 0 0 1-7.863 7.473c-4.23-.086-7.594-3.566-7.547-7.793a3.19 3.19 0 0 1 .012-.28zm-15.324-36.777l-.06-.05a7.97 7.97 0 0 1-.246-11.25c3.03-3.176 8.063-3.3 11.246-.273a7.97 7.97 0 0 1 .305 11.246 7.97 7.97 0 0 1-11.246.328zm.204 73.92c3.152-2.852 8.016-2.633 10.902.488a7.77 7.77 0 0 1-.367 10.91 7.75 7.75 0 0 1-10.9-.242 7.76 7.76 0 0 1 .113-10.91c.086-.086.172-.168.262-.246zm-69.5-4.242c-8.727-8.586-13.633-20.316-13.613-32.555v-.066c.04-25.016 20.164-45.355 45.176-45.664l.555-.004c25.12.004 45.54 20.27 45.73 45.387a10.18 10.18 0 0 1 .004.348c0 25.254-20.477 45.73-45.734 45.73h-.277a45.6 45.6 0 0 1-31.84-13.176zm64.848-32.555c0-18.078-14.652-32.73-32.73-32.73s-32.73 14.652-32.73 32.73 14.656 32.727 32.73 32.727 32.73-14.652 32.73-32.727zm0 0" class="B"/><path d="M528.72 265.852c0 18.074-14.652 32.727-32.73 32.727s-32.73-14.652-32.73-32.727 14.656-32.73 32.73-32.73 32.73 14.652 32.73 32.73zm0 0" class="D"/><g class="B"><path d="M495.434 213.28c-4.223-.32-7.4-3.965-7.164-8.195s3.832-7.477 8.063-7.3 7.547 3.695 7.453 7.93-3.562 7.613-7.797 7.594a6.58 6.58 0 0 1-.555-.02zm.276 104.993c.094-.008.184-.008.277-.008 4.336-.055 7.902 3.395 7.992 7.727a7.9 7.9 0 0 1-7.656 8.06 7.9 7.9 0 0 1-8.129-7.586 7.9 7.9 0 0 1 7.516-8.191zm-36.776-89.656l-.055.06c-3.04 3.168-8.07 3.277-11.246.246a7.97 7.97 0 0 1-.277-11.25 7.97 7.97 0 0 1 11.246-.301 7.97 7.97 0 0 1 .332 11.246zm.19 74.535a7.76 7.76 0 0 1-.492 10.902c-3.117 2.887-7.984 2.723-10.906-.363a7.75 7.75 0 0 1 .238-10.9c3.054-2.947 7.922-2.9 10.914.113.086.082.168.168.246.258zm0 0"/><use xlink:href="#AW"/></g><path d="M506.957 249.645c.922 0 1.672-.75 1.672-1.672a1.67 1.67 0 0 0-1.672-1.668H485.02c-.922 0-1.668.746-1.668 1.668a1.67 1.67 0 0 0 1.668 1.672h6.277c3.695 0 6.797 2.504 7.563 5.844h-13.84c-.922 0-1.668.746-1.668 1.668a1.67 1.67 0 0 0 1.668 1.672h13.84c-.262 1.47-.992 2.813-2.086 3.828-1.445 1.465-3.418 2.29-5.477 2.293h-6.277c-.687.012-1.3.438-1.55 1.078s-.094 1.367.406 1.844l15.69 14.832c.32.305.75.47 1.19.457s.863-.2 1.168-.52c.633-.68.602-1.742-.066-2.387l-12.64-11.965h2.078c2.945-.004 5.766-1.18 7.836-3.27 1.71-1.652 2.813-3.836 3.125-6.19h4.7c.922 0 1.672-.75 1.672-1.672a1.67 1.67 0 0 0-1.672-1.668h-4.7c-.36-2.227-1.453-4.453-3.04-5.844zm0 0" class="C"/><g clip-path="url(#AM)" class="C"><path d="M556.266 256.316c-4.48-.016-8.355 3.13-9.262 7.52h-3.66a47.04 47.04 0 0 0-12.66-30.277l2.586-2.586c4.047 2.758 9.527 1.973 12.633-1.812s2.813-9.312-.684-12.742-9.027-3.625-12.754-.45-4.4 8.672-1.578 12.664l-2.562 2.563a47.01 47.01 0 0 0-31.223-12.734v-3.56a9.47 9.47 0 0 0 8.363-9.676c-.14-4.902-4.004-8.89-8.898-9.184a9.47 9.47 0 0 0-9.937 8.047c-.73 4.852 2.367 9.457 7.133 10.613v3.797c-11.176.5-21.812 4.965-29.996 12.6l-2.586-2.586a9.47 9.47 0 0 0-.758-11.637c-2.898-3.246-7.633-4.098-11.477-2.062a9.46 9.46 0 0 0-4.766 10.641 9.47 9.47 0 0 0 9.188 7.184 9.39 9.39 0 0 0 5.469-1.742l2.563 2.56c-7.852 8.328-12.395 19.23-12.777 30.668h-3.594a9.47 9.47 0 0 0-10.156-7.758c-4.887.434-8.63 4.523-8.63 9.43s3.742 8.996 8.63 9.43a9.47 9.47 0 0 0 10.156-7.762h3.6c.352 11.55 4.95 22.563 12.9 30.938l-2.46 2.457c-3.77-2.844-9.06-2.477-12.395.863-3.512 3.512-3.715 9.14-.465 12.895a9.47 9.47 0 0 0 15.129-11.305l2.566-2.566a47.07 47.07 0 0 0 30.137 12.473v3.6a9.47 9.47 0 0 0-7.445 10.387c.582 4.867 4.785 8.484 9.684 8.336a9.47 9.47 0 0 0 9.164-8.906c.285-4.895-3.21-9.195-8.062-9.914v-3.473c11.656-.305 22.78-4.93 31.22-12.977l2.457 2.453c-2.953 3.918-2.43 9.44 1.207 12.73s9.188 3.254 12.785-.078 4.06-8.86 1.055-12.738-8.465-4.828-12.598-2.184l-2.566-2.566c7.727-8.387 12.145-19.293 12.434-30.69h3.53c.742 4.992 5.27 8.523 10.293 8.027a9.47 9.47 0 0 0 8.527-9.887c-.25-5.04-4.4-9-9.457-9zM435.71 271.9a6.13 6.13 0 0 1-6.129-6.125 6.13 6.13 0 0 1 6.129-6.129 6.13 6.13 0 0 1 6.129 6.129c-.004 3.383-2.746 6.12-6.13 6.125zm98.566-53.082c2.387-2.39 6.258-2.398 8.652-.016s2.418 6.246.047 8.648a6.13 6.13 0 0 1-8.652.074c-.016-.016-.03-.03-.05-.047-2.39-2.39-2.387-6.27.004-8.66zm-44.418-13.324a6.13 6.13 0 0 1 6.129-6.125c3.387 0 6.13 2.742 6.13 6.125a6.13 6.13 0 0 1-6.129 6.129c-.16 0-.29-.004-.402-.016l-.035-.004a6.14 6.14 0 0 1-5.691-6.109zm-40.828 21.988c-2.387-2.387-2.395-6.254-.016-8.648a6.13 6.13 0 0 1 8.727 8.605l-.047.047c-2.39 2.395-6.273 2.39-8.664-.004zm8.668 85.25c-2.395 2.39-6.273 2.39-8.668-.004s-2.395-6.27 0-8.664c1.152-1.152 2.72-1.8 4.348-1.797s3.19.656 4.34 1.816c.05.05.102.102.148.156.008.012.016.02.023.027a6.11 6.11 0 0 1-.191 8.465zm44.418 13.32a6.13 6.13 0 0 1-6.051 6.129 6.13 6.13 0 0 1-6.203-5.977 6.13 6.13 0 0 1 5.906-6.273h.043c.06-.004.117-.008.176-.008a6.14 6.14 0 0 1 6.129 6.129zm40.828-21.988a6.13 6.13 0 0 1-8.668 8.668c-2.395-2.395-2.39-6.273 0-8.668l.02-.02c.05-.055.105-.102.16-.148l.027-.027a6.11 6.11 0 0 1 8.461.195zm-15.527-7.285a43.8 43.8 0 0 1-31.43 13.238h-.266c-11.56-.277-22.453-4.637-30.68-12.754l.05-.027c-8.414-8.277-13.125-19.598-13.07-31.395v-.066c-.012-24.1 19.367-43.703 43.457-43.98.168-.004.313.012.484.012h.023c24.203-.012 43.88 19.508 44.063 43.707v.36a43.87 43.87 0 0 1-12.633 30.906zm28.848-24.88a6.13 6.13 0 0 1-6.125-6.125c0-.062 0-.12.004-.18 0-.012 0-.027.004-.043.12-3.352 2.914-5.984 6.27-5.902s6.016 2.848 5.977 6.2a6.13 6.13 0 0 1-6.129 6.051zm0 0"/></g><path d="M495.988 231.45c-18.996 0-34.398 15.402-34.398 34.402s15.402 34.398 34.398 34.398 34.398-15.402 34.398-34.398c-.02-18.992-15.4-34.38-34.398-34.402zm0 65.46c-17.152 0-31.06-13.906-31.06-31.06s13.906-31.062 31.06-31.062 31.063 13.906 31.063 31.063c-.02 17.145-13.918 31.04-31.063 31.06zm0 0" class="C"/><path d="M1172.098 121.98c.203-4.223 3.77-7.496 7.996-7.328a7.71 7.71 0 0 1 7.402 7.93 7.71 7.71 0 0 1-7.863 7.473c-4.227-.086-7.594-3.566-7.543-7.797 0-.094 0-.184.008-.277zm-15.325-36.777a.75.75 0 0 1-.06-.055c-3.168-3.04-3.277-8.07-.246-11.246a7.97 7.97 0 0 1 11.246-.277 7.97 7.97 0 0 1 .305 11.25 7.97 7.97 0 0 1-11.246.328zm.204 73.922c3.152-2.852 8.016-2.633 10.902.488s2.723 7.984-.363 10.906a7.77 7.77 0 0 1-10.914-.238c-2.957-3.055-2.906-7.922.113-10.914.086-.086.172-.164.262-.242zm-69.49-4.245a45.58 45.58 0 0 1-13.613-32.555v-.066c.04-25.012 20.164-45.352 45.176-45.664h.555c25.12.004 45.54 20.266 45.73 45.387.004.113.004.23.004.344 0 25.258-20.477 45.734-45.734 45.734h-.277a45.59 45.59 0 0 1-31.84-13.18zm64.848-32.555c0-18.074-14.652-32.727-32.73-32.727s-32.727 14.652-32.727 32.727 14.652 32.73 32.727 32.73 32.73-14.652 32.73-32.73zm0 0" class="B"/><path d="M1152.336 122.324c0 18.078-14.652 32.73-32.73 32.73s-32.727-14.652-32.727-32.73 14.652-32.727 32.727-32.727 32.73 14.652 32.73 32.727zm0 0" class="D"/><g class="B"><path d="M1119.05 69.754c-4.223-.32-7.4-3.965-7.164-8.2a7.77 7.77 0 0 1 8.063-7.309c4.23.168 7.547 3.695 7.453 7.93s-3.562 7.613-7.797 7.594a5.27 5.27 0 0 1-.555-.023zm.278 104.996c.094-.008.184-.008.277-.008 4.336-.055 7.902 3.395 7.992 7.727a7.9 7.9 0 0 1-7.656 8.06c-4.332.13-7.957-3.254-8.125-7.586a7.89 7.89 0 0 1 7.512-8.191zm-36.778-89.656l-.055.055c-3.04 3.172-8.07 3.28-11.246.25a7.97 7.97 0 0 1-.277-11.25 7.97 7.97 0 0 1 11.25-.3 7.97 7.97 0 0 1 .328 11.246zm.192 74.536c2.852 3.152 2.633 8.016-.488 10.902a7.77 7.77 0 0 1-10.91-.363 7.77 7.77 0 0 1 .238-10.914c3.06-2.957 7.922-2.906 10.914.113.086.086.168.172.246.262zm0 0"/><use xlink:href="#AW" x="623.617" y="-143.527"/></g><path d="M1130.578 106.12c.918 0 1.668-.75 1.668-1.672a1.67 1.67 0 0 0-1.668-1.668h-21.94c-.922 0-1.668.746-1.668 1.668a1.67 1.67 0 0 0 1.668 1.672h6.277c3.7 0 6.797 2.504 7.563 5.844h-13.84c-.922 0-1.668.746-1.668 1.668s.746 1.668 1.668 1.668h13.84a6.84 6.84 0 0 1-2.086 3.832c-1.445 1.465-3.418 2.29-5.477 2.293h-6.277a1.7 1.7 0 0 0-1.551 1.074c-.25.64-.094 1.37.406 1.848l15.69 14.832c.32.305.75.47 1.19.457a1.67 1.67 0 0 0 1.168-.52c.633-.68.602-1.742-.066-2.387l-12.64-11.97h2.078c2.945 0 5.766-1.176 7.836-3.27 1.71-1.652 2.813-3.832 3.125-6.19h4.703a1.67 1.67 0 0 0 1.668-1.668 1.67 1.67 0 0 0-1.668-1.668h-4.703c-.36-2.227-1.453-4.453-3.04-5.844zm0 0" class="C"/><g clip-path="url(#AN)" class="C"><path d="M1179.887 112.793c-4.484-.02-8.36 3.13-9.266 7.52h-3.66a47.02 47.02 0 0 0-12.66-30.277l2.586-2.586a9.46 9.46 0 0 0 12.637-1.812c3.105-3.785 2.81-9.312-.684-12.742a9.46 9.46 0 0 0-14.336 12.215l-2.562 2.563a47.01 47.01 0 0 0-31.223-12.734v-3.56a9.47 9.47 0 0 0 8.363-9.676 9.48 9.48 0 0 0-8.898-9.187c-4.898-.293-9.21 3.2-9.937 8.05s2.367 9.457 7.133 10.613v3.797c-11.176.5-21.81 4.96-29.996 12.6l-2.586-2.586a9.47 9.47 0 0 0-.758-11.637 9.46 9.46 0 0 0-11.477-2.066c-3.844 2.03-5.812 6.422-4.766 10.645a9.47 9.47 0 0 0 9.188 7.184 9.41 9.41 0 0 0 5.473-1.742l2.56 2.56c-7.848 8.324-12.395 19.23-12.777 30.668h-3.594a9.47 9.47 0 0 0-10.156-7.762c-4.883.438-8.63 4.527-8.63 9.43a9.47 9.47 0 0 0 18.785 1.672h3.6c.352 11.547 4.95 22.563 12.9 30.938l-2.46 2.457c-3.766-2.844-9.055-2.477-12.395.863-3.512 3.512-3.715 9.137-.465 12.89a9.47 9.47 0 0 0 15.133-11.301l2.563-2.566c8.242 7.617 18.93 12.04 30.14 12.473v3.6c-4.797 1.012-8.027 5.516-7.45 10.387s4.785 8.484 9.684 8.336a9.47 9.47 0 0 0 9.164-8.906c.285-4.895-3.21-9.195-8.062-9.914v-3.473a46.99 46.99 0 0 0 31.219-12.98l2.457 2.457c-2.953 3.918-2.43 9.438 1.207 12.73s9.188 3.254 12.785-.078a9.47 9.47 0 0 0-11.539-14.922l-2.566-2.566c7.723-8.387 12.14-19.293 12.43-30.69h3.535c.742 4.992 5.27 8.523 10.29 8.027s8.777-4.844 8.527-9.887a9.47 9.47 0 0 0-9.453-9zm-120.56 15.594a6.13 6.13 0 0 1-6.129-6.129 6.13 6.13 0 0 1 6.129-6.125 6.13 6.13 0 0 1 6.129 6.125 6.14 6.14 0 0 1-6.129 6.129zm98.566-53.086a6.13 6.13 0 0 1 8.699 8.637 6.13 6.13 0 0 1-8.652.074l-.047-.047c-2.395-2.39-2.39-6.27 0-8.664zm-44.414-13.32a6.13 6.13 0 0 1 6.125-6.129 6.13 6.13 0 0 1 6.129 6.129 6.13 6.13 0 0 1-6.129 6.129c-.156 0-.29-.004-.402-.016l-.035-.004a6.14 6.14 0 0 1-5.687-6.109zm-40.832 21.988a6.13 6.13 0 0 1 8.637-8.695 6.13 6.13 0 0 1 .074 8.652l-.047.047c-2.39 2.39-6.27 2.39-8.66-.004zm8.668 85.25c-2.39 2.39-6.273 2.39-8.668-.004a6.13 6.13 0 0 1 0-8.664c1.152-1.156 2.72-1.8 4.348-1.797s3.19.656 4.34 1.813a2.88 2.88 0 0 1 .148.16l.027.027c2.215 2.418 2.13 6.152-.195 8.465zm44.418 13.32a6.13 6.13 0 0 1-6.051 6.129 6.13 6.13 0 0 1-6.203-5.98 6.13 6.13 0 0 1 5.906-6.27c.016 0 .027 0 .043-.004.06-.004.117-.004.176-.004a6.14 6.14 0 0 1 6.129 6.129zm40.828-21.988a6.13 6.13 0 0 1-8.668 8.668c-2.395-2.395-2.39-6.277 0-8.668.008-.008.016-.016.02-.023.055-.05.105-.102.16-.148l.027-.023c2.418-2.22 6.152-2.133 8.46.195zm-15.527-7.285a43.8 43.8 0 0 1-31.43 13.238h-.266c-11.56-.277-22.453-4.637-30.676-12.754l.047-.027a43.77 43.77 0 0 1-13.07-31.398v-.062c-.012-24.094 19.367-43.707 43.457-43.98.168-.004.313.012.484.012h.023c24.203-.012 43.88 19.508 44.063 43.707v.027c.004.098 0 .23 0 .328.03 11.566-4.512 22.676-12.63 30.9zm28.848-24.88c-3.383-.004-6.12-2.746-6.125-6.13 0-.06 0-.117.004-.176 0-.016.004-.027.004-.043.12-3.352 2.914-5.984 6.27-5.902a6.13 6.13 0 0 1 5.977 6.199c-.04 3.355-2.773 6.05-6.125 6.05zm0 0"/></g><path d="M1119.605 87.926c-18.996 0-34.398 15.402-34.398 34.398s15.402 34.402 34.398 34.402 34.402-15.402 34.402-34.402c-.023-18.988-15.4-34.375-34.402-34.398zm0 65.46c-17.152 0-31.06-13.906-31.06-31.062s13.906-31.06 31.06-31.06 31.063 13.906 31.063 31.06c-.02 17.148-13.914 31.043-31.062 31.063zm0 0" class="C"/><path d="M1172.098 435.06c.203-4.227 3.77-7.496 7.996-7.332a7.71 7.71 0 0 1 7.402 7.934 7.71 7.71 0 0 1-7.863 7.473 7.71 7.71 0 0 1-7.543-7.797c0-.094 0-.187.008-.277zm-15.325-36.78l-.06-.055a7.97 7.97 0 0 1-.246-11.25c3.03-3.176 8.063-3.297 11.246-.273a7.97 7.97 0 0 1 .305 11.246 7.97 7.97 0 0 1-11.246.332zm.204 73.92c3.152-2.848 8.016-2.63 10.902.492s2.723 7.984-.363 10.906a7.77 7.77 0 0 1-10.914-.238c-2.957-3.055-2.906-7.922.113-10.914.086-.086.172-.164.262-.246zm-69.49-4.243c-8.723-8.582-13.63-20.316-13.613-32.555v-.066c.04-25.012 20.164-45.355 45.176-45.664l.555-.004c25.12.004 45.54 20.27 45.73 45.4.004.113.004.23.004.344 0 25.258-20.477 45.73-45.734 45.73h-.277a45.57 45.57 0 0 1-31.84-13.176zm64.848-32.555c0-18.074-14.652-32.73-32.73-32.73s-32.727 14.656-32.727 32.73 14.652 32.73 32.727 32.73 32.73-14.652 32.73-32.73zm0 0" class="B"/><path d="M1152.336 435.402c0 18.078-14.652 32.73-32.73 32.73s-32.727-14.652-32.727-32.73 14.652-32.73 32.727-32.73 32.73 14.656 32.73 32.73zm0 0" class="D"/><g class="B"><path d="M1119.05 382.832c-4.223-.32-7.4-3.965-7.164-8.2s3.832-7.48 8.063-7.3 7.547 3.695 7.453 7.93a7.77 7.77 0 0 1-7.797 7.594c-.184 0-.37-.008-.555-.023zm.278 104.992l.277-.008c4.336-.055 7.902 3.395 7.992 7.73a7.9 7.9 0 0 1-7.656 8.059 7.9 7.9 0 0 1-8.125-7.586c-.172-4.332 3.184-7.988 7.512-8.195zm-36.778-89.652l-.055.055c-3.04 3.168-8.07 3.28-11.246.246s-3.3-8.062-.277-11.246a7.97 7.97 0 0 1 11.25-.301 7.97 7.97 0 0 1 .328 11.246zm.192 74.53c2.852 3.156 2.633 8.02-.488 10.902s-7.988 2.727-10.9-.363-2.816-7.953.238-10.9 7.922-2.906 10.914.113c.086.086.168.172.246.258zm0 0"/><use xlink:href="#AW" x="623.617" y="169.551"/></g><path d="M1130.578 419.195a1.67 1.67 0 0 0 1.668-1.668 1.67 1.67 0 0 0-1.668-1.668h-21.94c-.922 0-1.668.746-1.668 1.668s.746 1.668 1.668 1.668h6.277c3.7 0 6.797 2.504 7.563 5.844h-13.84a1.67 1.67 0 0 0-1.668 1.672c0 .922.746 1.668 1.668 1.668h13.84a6.83 6.83 0 0 1-2.086 3.828c-1.445 1.465-3.418 2.293-5.477 2.293h-6.277c-.687.012-1.3.438-1.55 1.078a1.69 1.69 0 0 0 .406 1.844l15.69 14.832c.32.305.75.47 1.19.46a1.66 1.66 0 0 0 1.168-.523 1.7 1.7 0 0 0-.066-2.383l-12.64-11.97h2.078c2.945 0 5.766-1.176 7.836-3.27 1.71-1.652 2.813-3.836 3.125-6.19h4.703a1.67 1.67 0 0 0 1.668-1.668c0-.922-.75-1.672-1.668-1.672h-4.703c-.36-2.227-1.453-4.45-3.04-5.844zm0 0" class="C"/><g clip-path="url(#AO)" class="C"><path d="M1179.887 425.87a9.42 9.42 0 0 0-9.266 7.516h-3.66a47.02 47.02 0 0 0-12.66-30.277l2.586-2.586c4.047 2.762 9.527 1.977 12.637-1.81a9.46 9.46 0 0 0-13.441-13.195c-3.727 3.176-4.4 8.672-1.578 12.664l-2.562 2.563c-8.477-7.957-19.598-12.492-31.223-12.734v-3.555c4.875-.574 8.504-4.773 8.363-9.676s-4-8.89-8.898-9.187a9.47 9.47 0 0 0-9.937 8.047c-.73 4.852 2.367 9.457 7.133 10.613v3.8c-11.176.496-21.81 4.96-29.996 12.6l-2.586-2.6a9.47 9.47 0 0 0-.758-11.637c-2.898-3.242-7.633-4.094-11.477-2.062s-5.812 6.422-4.766 10.645 4.84 7.184 9.188 7.184c1.96.004 3.875-.605 5.473-1.746l2.56 2.563c-7.848 8.324-12.395 19.23-12.777 30.668h-3.594a9.47 9.47 0 0 0-18.785 1.668 9.47 9.47 0 0 0 18.785 1.668h3.6c.352 11.55 4.95 22.563 12.9 30.938l-2.46 2.46a9.46 9.46 0 0 0-12.395.863c-3.512 3.512-3.715 9.137-.465 12.89a9.47 9.47 0 0 0 12.824 1.391c3.98-2.973 4.984-8.512 2.31-12.695l2.563-2.562c8.242 7.613 18.93 12.04 30.14 12.473v3.6a9.47 9.47 0 0 0-7.449 10.383c.582 4.867 4.785 8.484 9.684 8.34s8.875-4.016 9.164-8.906a9.47 9.47 0 0 0-8.062-9.918v-3.47a46.99 46.99 0 0 0 31.219-12.98l2.457 2.457a9.47 9.47 0 0 0 13.992 12.652 9.47 9.47 0 0 0-11.539-14.922l-2.566-2.566a47.09 47.09 0 0 0 12.43-30.695h3.535c.742 4.992 5.27 8.527 10.29 8.03a9.47 9.47 0 0 0 8.527-9.887c-.25-5.043-4.406-9-9.453-9zm-120.56 15.594c-3.383 0-6.13-2.746-6.13-6.13s2.746-6.13 6.13-6.13 6.13 2.746 6.13 6.13a6.14 6.14 0 0 1-6.129 6.129zm98.566-53.086a6.13 6.13 0 0 1 8.652-.016c2.398 2.38 2.418 6.246.047 8.652a6.13 6.13 0 0 1-8.652.074l-.047-.047a6.13 6.13 0 0 1 0-8.664zm-44.414-13.32c0-3.387 2.742-6.13 6.125-6.13a6.13 6.13 0 0 1 6.129 6.129c0 3.383-2.742 6.125-6.13 6.125-.156 0-.29-.004-.402-.016h-.035a6.14 6.14 0 0 1-5.687-6.109zm-40.832 21.988a6.13 6.13 0 0 1-.016-8.652c2.38-2.395 6.25-2.418 8.652-.043s2.438 6.238.074 8.648c-.016.02-.03.035-.047.05-2.39 2.39-6.27 2.39-8.66-.004zm8.668 85.246a6.13 6.13 0 0 1-8.668 0c-2.39-2.395-2.39-6.273 0-8.668 1.152-1.152 2.72-1.8 4.348-1.797s3.19.656 4.34 1.816a2.88 2.88 0 0 1 .148.16c.008.008.02.016.027.027a6.11 6.11 0 0 1-.195 8.461zm44.418 13.32c0 3.355-2.695 6.1-6.05 6.133s-6.12-2.625-6.203-5.98a6.13 6.13 0 0 1 5.906-6.273h.043c.06-.004.117-.004.176-.004 3.383.004 6.125 2.742 6.13 6.125zm40.828-21.988a6.13 6.13 0 0 1-8.668 8.668c-2.395-2.395-2.39-6.273 0-8.668.008-.004.016-.012.02-.02.055-.05.105-.102.16-.148l.027-.027a6.11 6.11 0 0 1 8.461.195zm-15.527-7.285c-8.258 8.48-19.594 13.254-31.43 13.242h-.266c-11.56-.28-22.453-4.637-30.676-12.754l.047-.03c-8.4-8.273-13.125-19.594-13.07-31.395v-.062c-.012-24.094 19.367-43.707 43.457-43.984.168 0 .313.016.484.016h.023c24.203-.012 43.88 19.504 44.063 43.707v.023c.004.102 0 .23 0 .332.03 11.566-4.512 22.672-12.63 30.9zm28.848-24.875c-3.383-.004-6.12-2.746-6.125-6.13a2.64 2.64 0 0 1 .004-.176c0-.016.004-.03.004-.043.12-3.355 2.914-5.984 6.27-5.902a6.13 6.13 0 0 1 5.977 6.199 6.13 6.13 0 0 1-6.125 6.051zm0 0"/></g><path d="M1119.605 401.004c-18.996 0-34.398 15.398-34.398 34.398s15.402 34.398 34.398 34.398 34.402-15.398 34.402-34.398c-.023-18.988-15.4-34.375-34.402-34.398zm0 65.46c-17.152 0-31.06-13.906-31.06-31.062s13.906-31.06 31.06-31.06 31.063 13.906 31.063 31.06c-.02 17.148-13.914 31.043-31.062 31.063zm0 0" class="C"/><g class="B"><path d="M122.324 69.48c.203-4.223 3.773-7.496 7.996-7.328s7.53 3.703 7.402 7.93-3.637 7.563-7.863 7.473-7.594-3.566-7.543-7.797c0-.094.004-.184.008-.277zm0 0"/><use xlink:href="#AR" x="-200.64" y="-52.5"/><path d="M107.203 106.625a7.76 7.76 0 0 1 10.539 11.394c-3.1 2.922-7.953 2.816-10.9-.238s-2.906-7.922.113-10.914a3.78 3.78 0 0 1 .258-.242zM37.72 102.38a45.57 45.57 0 0 1-13.617-32.555v-.066c.04-25.012 20.168-45.352 45.176-45.664h.56c25.12.004 45.535 20.266 45.73 45.387.004.113.004.23.004.344-.004 25.258-20.477 45.734-45.734 45.734h-.28c-11.926-.06-23.355-4.8-31.836-13.18zm64.848-32.555c0-18.074-14.656-32.727-32.73-32.727s-32.73 14.652-32.73 32.727 14.652 32.73 32.73 32.73 32.73-14.652 32.73-32.73zm0 0"/></g><use xlink:href="#AS" x="-200.641" y="-52.5" class="D"/><g class="B"><path d="M69.277 17.254a7.77 7.77 0 0 1-7.164-8.191 7.77 7.77 0 0 1 8.063-7.309 7.76 7.76 0 0 1 7.453 7.93 7.76 7.76 0 0 1-7.793 7.594 5.3 5.3 0 0 1-.559-.023zm.278 104.996c.094-.008.184-.008.28-.008a7.9 7.9 0 0 1 7.992 7.727 7.9 7.9 0 0 1-7.66 8.059 7.9 7.9 0 0 1-8.125-7.586c-.168-4.328 3.184-7.988 7.512-8.2zm0 0"/><use xlink:href="#AT" x="-200.641" y="-52.5"/><use xlink:href="#AU" x="-200.64" y="-52.5"/><use xlink:href="#AV" x="-200.641" y="-52.5"/></g><path d="M80.805 53.62a1.67 1.67 0 0 0 1.668-1.672c0-.922-.746-1.668-1.668-1.668H58.867a1.67 1.67 0 1 0 0 3.34h6.277c3.695 0 6.793 2.504 7.56 5.844H58.867a1.67 1.67 0 0 0-1.672 1.668 1.67 1.67 0 0 0 1.672 1.668h13.84c-.262 1.473-.992 2.816-2.1 3.832a7.71 7.71 0 0 1-5.473 2.293h-6.277A1.7 1.7 0 0 0 57.316 70c-.254.64-.094 1.37.402 1.848L73.4 86.68c.32.305.75.47 1.19.457a1.67 1.67 0 0 0 1.168-.52c.637-.68.605-1.742-.066-2.387l-12.64-11.97h2.082a11.02 11.02 0 0 0 7.836-3.27 10.53 10.53 0 0 0 3.121-6.191h4.703c.922 0 1.668-.746 1.668-1.668s-.746-1.668-1.668-1.668h-4.703c-.355-2.227-1.453-4.453-3.04-5.844zm0 0" class="C"/><g clip-path="url(#AP)" class="C"><path d="M130.113 60.293c-4.484-.02-8.36 3.13-9.262 7.52h-3.66a47.06 47.06 0 0 0-12.66-30.277l2.586-2.586c4.043 2.758 9.527 1.973 12.633-1.812a9.45 9.45 0 0 0-.684-12.742c-3.492-3.434-9.027-3.625-12.754-.453a9.46 9.46 0 0 0-1.578 12.668l-2.562 2.563C93.695 27.21 82.57 22.676 70.95 22.438v-3.56a9.47 9.47 0 0 0 8.359-9.676 9.48 9.48 0 0 0-18.836-1.137c-.727 4.852 2.367 9.457 7.137 10.613v3.797c-11.18.5-21.812 4.96-29.996 12.6l-2.6-2.586c2.453-3.594 2.14-8.395-.754-11.637a9.46 9.46 0 0 0-16.242 8.578 9.46 9.46 0 0 0 9.188 7.184c1.96.004 3.87-.605 5.47-1.742l2.56 2.56c-7.848 8.324-12.39 19.23-12.773 30.668H18.87c-.863-4.828-5.27-8.195-10.152-7.762a9.47 9.47 0 0 0-8.629 9.43c0 4.906 3.742 8.996 8.63 9.43s9.29-2.934 10.152-7.758h3.594a46.98 46.98 0 0 0 12.906 30.938l-2.457 2.457a9.47 9.47 0 0 0-12.859 13.754c3.25 3.754 8.844 4.363 12.824 1.39a9.47 9.47 0 0 0 2.305-12.691l2.566-2.566a47.07 47.07 0 0 0 30.137 12.473v3.6c-4.797 1.012-8.027 5.516-7.445 10.387s4.78 8.484 9.68 8.336 8.88-4.012 9.164-8.906a9.46 9.46 0 0 0-8.059-9.914v-3.473a46.98 46.98 0 0 0 31.215-12.98l2.457 2.457c-2.953 3.918-2.43 9.438 1.21 12.73s9.184 3.254 12.78-.078a9.47 9.47 0 0 0-11.539-14.922l-2.566-2.566c7.723-8.387 12.145-19.293 12.434-30.69h3.53c.742 4.992 5.27 8.523 10.293 8.027s8.773-4.844 8.523-9.887-4.406-9-9.453-9zM9.56 75.887a6.13 6.13 0 0 1-6.129-6.129c0-3.383 2.742-6.125 6.13-6.125s6.125 2.742 6.125 6.125-2.746 6.125-6.125 6.13zM108.125 22.8a6.13 6.13 0 0 1 8.695 8.637c-2.37 2.406-6.238 2.438-8.652.074l-.047-.047c-2.39-2.39-2.39-6.27.004-8.664zM63.707 9.48a6.13 6.13 0 0 1 6.129-6.129 6.13 6.13 0 0 1 6.125 6.129c0 3.387-2.742 6.13-6.125 6.13a4.05 4.05 0 0 1-.406-.016l-.035-.004a6.14 6.14 0 0 1-5.687-6.109zM22.88 31.47c-2.39-2.387-2.395-6.254-.016-8.652a6.13 6.13 0 0 1 8.727 8.609l-.047.047c-2.395 2.39-6.273 2.39-8.664-.004zm8.668 85.25c-2.395 2.39-6.273 2.39-8.668-.004s-2.395-6.273 0-8.664a6.11 6.11 0 0 1 4.348-1.797c1.63 0 3.19.656 4.336 1.813a1.95 1.95 0 0 1 .152.16c.008.008.016.02.023.027 2.215 2.418 2.133 6.152-.19 8.465zm44.414 13.32c.004 3.355-2.695 6.086-6.05 6.13s-6.12-2.625-6.2-5.98a6.13 6.13 0 0 1 5.902-6.27c.016 0 .027 0 .043-.004.06-.004.117-.004.18-.004 3.383.004 6.12 2.746 6.125 6.13zm40.832-21.988a6.13 6.13 0 0 1-8.668 8.668 6.13 6.13 0 0 1 0-8.668c.008-.008.012-.016.02-.023a2.88 2.88 0 0 1 .16-.148l.027-.023c2.414-2.22 6.148-2.133 8.46.195zm-15.527-7.285c-8.258 8.477-19.598 13.254-31.43 13.238h-.27c-11.555-.277-22.45-4.637-30.676-12.754l.047-.027c-8.4-8.277-13.12-19.598-13.07-31.398v-.062c-.012-24.094 19.37-43.707 43.46-43.98.168-.004.313.012.484.012h.023c24.2-.012 43.875 19.508 44.06 43.707v.027c.004.098.004.23.004.328a43.87 43.87 0 0 1-12.633 30.91zm28.848-24.88a6.14 6.14 0 0 1-6.129-6.129c0-.06.004-.117.008-.176v-.043a6.13 6.13 0 0 1 6.27-5.902 6.13 6.13 0 0 1 5.98 6.199 6.13 6.13 0 0 1-6.129 6.051zm0 0"/></g><use xlink:href="#AX" class="C"/><path d="M1422.633 69.48c.203-4.223 3.773-7.496 7.996-7.328a7.71 7.71 0 0 1 7.402 7.93c-.128 4.227-3.637 7.563-7.863 7.473a7.71 7.71 0 0 1-7.543-7.797c0-.094 0-.184.008-.277zM1407.3 32.703c-.02-.016-.035-.035-.055-.055-3.172-3.04-3.28-8.07-.25-11.246a7.97 7.97 0 0 1 11.25-.277 7.97 7.97 0 0 1 .3 11.25 7.97 7.97 0 0 1-11.246.328zm.202 73.922a7.76 7.76 0 0 1 10.902.488c2.886 3.12 2.723 7.984-.363 10.906a7.75 7.75 0 0 1-10.9-.238c-2.947-3.054-2.906-7.922.113-10.914a3.78 3.78 0 0 1 .258-.242zm-69.485-4.245a45.57 45.57 0 0 1-13.617-32.555v-.066c.04-25.012 20.164-45.352 45.176-45.664h.56c25.12.004 45.535 20.266 45.73 45.387v.344c0 25.258-20.477 45.734-45.73 45.734h-.28c-11.926-.06-23.355-4.8-31.836-13.18zm64.844-32.555c0-18.074-14.652-32.727-32.727-32.727s-32.73 14.652-32.73 32.727 14.652 32.73 32.73 32.73 32.727-14.652 32.727-32.73zm0 0" class="B"/><path d="M1402.87 69.824c0 18.078-14.652 32.73-32.727 32.73s-32.73-14.652-32.73-32.73 14.652-32.727 32.73-32.727 32.727 14.652 32.727 32.727zm0 0" class="D"/><g class="B"><path d="M1369.586 17.254c-4.223-.32-7.4-3.965-7.164-8.2a7.77 7.77 0 0 1 8.063-7.309 7.76 7.76 0 0 1 7.453 7.93c-.094 4.235-3.56 7.613-7.793 7.594a5.3 5.3 0 0 1-.559-.023zm.277 104.996c.094-.008.184-.008.28-.008 4.332-.055 7.898 3.395 7.988 7.727a7.9 7.9 0 0 1-7.656 8.06c-4.332.13-7.957-3.254-8.125-7.586a7.89 7.89 0 0 1 7.512-8.19zm-36.777-89.656a.65.65 0 0 1-.051.055 7.97 7.97 0 0 1-11.25.25 7.97 7.97 0 0 1-.273-11.25c3.023-3.184 8.055-3.316 11.246-.3a7.97 7.97 0 0 1 .328 11.246zm.19 74.536c2.852 3.152 2.633 8.016-.488 10.902s-7.984 2.723-10.906-.363a7.77 7.77 0 0 1 .238-10.914c3.055-2.957 7.918-2.906 10.914.113.086.086.164.172.242.262zm0 0"/><use xlink:href="#AV" x="1099.668" y="-52.5"/></g><path d="M1381.113 53.62a1.67 1.67 0 0 0 1.668-1.672c0-.922-.746-1.668-1.668-1.668h-21.937a1.67 1.67 0 1 0 0 3.34h6.277c3.695 0 6.793 2.504 7.56 5.844h-13.836a1.67 1.67 0 0 0-1.672 1.668 1.67 1.67 0 0 0 1.672 1.668h13.836a6.84 6.84 0 0 1-2.086 3.832 7.71 7.71 0 0 1-5.473 2.293h-6.277c-.69.012-1.3.438-1.555 1.074s-.1 1.37.406 1.848l15.69 14.832c.32.305.75.47 1.19.457a1.67 1.67 0 0 0 1.168-.52 1.7 1.7 0 0 0-.066-2.387l-12.64-11.97h2.082a11.03 11.03 0 0 0 7.836-3.27 10.53 10.53 0 0 0 3.121-6.191h4.703c.922 0 1.668-.746 1.668-1.668s-.746-1.668-1.668-1.668h-4.703c-.355-2.227-1.453-4.453-3.04-5.844zm0 0" class="C"/><g clip-path="url(#AQ)" class="C"><path d="M1430.422 60.293c-4.484-.02-8.36 3.13-9.262 7.52h-3.66a47.06 47.06 0 0 0-12.66-30.277l2.586-2.586c4.043 2.758 9.527 1.973 12.633-1.812s2.81-9.312-.684-12.742-9.027-3.625-12.754-.453-4.414 8.672-1.578 12.668l-2.566 2.563a47 47 0 0 0-31.219-12.734v-3.56a9.47 9.47 0 0 0 8.359-9.676 9.48 9.48 0 0 0-18.836-1.137c-.73 4.852 2.367 9.457 7.137 10.613v3.797c-11.18.5-21.812 4.96-29.996 12.6l-2.6-2.586a9.46 9.46 0 0 0-12.234-13.703c-3.844 2.03-5.81 6.422-4.762 10.645a9.46 9.46 0 0 0 9.184 7.184 9.41 9.41 0 0 0 5.473-1.742l2.56 2.56c-7.848 8.324-12.39 19.23-12.773 30.668h-3.598c-.863-4.828-5.27-8.195-10.156-7.762a9.47 9.47 0 0 0-8.625 9.43c0 4.906 3.742 8.996 8.625 9.43s9.293-2.934 10.156-7.758h3.6c.355 11.547 4.95 22.563 12.9 30.938l-2.457 2.457a9.47 9.47 0 0 0-12.863 13.754c3.25 3.754 8.848 4.363 12.828 1.39a9.47 9.47 0 0 0 2.305-12.691l2.563-2.566c8.242 7.617 18.93 12.04 30.14 12.473v3.6c-4.797 1.012-8.027 5.516-7.45 10.387s4.785 8.484 9.684 8.336 8.88-4.012 9.164-8.906a9.46 9.46 0 0 0-8.059-9.914v-3.473a46.98 46.98 0 0 0 31.215-12.98l2.457 2.457c-2.953 3.918-2.43 9.438 1.21 12.73s9.184 3.254 12.78-.078a9.47 9.47 0 0 0 1.059-12.742c-3-3.88-8.47-4.824-12.598-2.18l-2.566-2.566c7.723-8.387 12.14-19.293 12.434-30.69h3.53c.742 4.992 5.27 8.523 10.293 8.027s8.773-4.844 8.523-9.887-4.406-9-9.453-9zm-120.555 15.594a6.13 6.13 0 0 1-6.129-6.129c0-3.383 2.742-6.125 6.13-6.125s6.125 2.742 6.125 6.125-2.746 6.125-6.125 6.13zm98.566-53.086a6.13 6.13 0 0 1 8.695 8.637c-2.37 2.406-6.238 2.438-8.652.074l-.047-.047c-2.39-2.39-2.39-6.27.004-8.664zm-44.418-13.32a6.13 6.13 0 0 1 6.129-6.129 6.13 6.13 0 0 1 6.125 6.129c0 3.387-2.742 6.13-6.125 6.13a4.05 4.05 0 0 1-.406-.016l-.035-.004a6.14 6.14 0 0 1-5.687-6.109zm-40.828 21.988c-2.39-2.387-2.395-6.254-.016-8.652a6.13 6.13 0 0 1 8.723 8.609c-.012.016-.03.03-.047.047-2.39 2.39-6.27 2.39-8.66-.004zm8.668 85.25c-2.395 2.39-6.277 2.39-8.668-.004s-2.395-6.273 0-8.664a6.11 6.11 0 0 1 4.344-1.797c1.633 0 3.19.656 4.34 1.813.055.05.102.105.152.16.008.008.016.02.023.027 2.215 2.418 2.133 6.152-.19 8.465zm44.414 13.32c.004 3.355-2.695 6.086-6.05 6.13s-6.12-2.625-6.2-5.98a6.13 6.13 0 0 1 5.902-6.27c.016 0 .027 0 .043-.004.06-.004.117-.004.18-.004 3.383.004 6.12 2.746 6.125 6.13zm40.832-21.988c2.39 2.39 2.395 6.273 0 8.668a6.13 6.13 0 0 1-8.668-8.668c.004-.008.012-.016.02-.023.05-.05.105-.102.156-.148l.027-.023a6.11 6.11 0 0 1 8.465.195zm-15.527-7.285c-8.258 8.477-19.598 13.254-31.43 13.238h-.27c-11.555-.277-22.453-4.637-30.676-12.754l.047-.027c-8.4-8.277-13.12-19.598-13.07-31.398v-.062c-.012-24.094 19.37-43.707 43.46-43.98.164-.004.313.012.48.012h.027c24.2-.012 43.875 19.508 44.06 43.707v.027a9.19 9.19 0 0 1 .004.328 43.87 43.87 0 0 1-12.633 30.91zm28.848-24.88a6.14 6.14 0 0 1-6.129-6.129c0-.06.004-.117.008-.176v-.043a6.13 6.13 0 0 1 6.27-5.902c3.355.082 6.02 2.844 5.977 6.2s-2.77 6.05-6.125 6.05zm0 0"/></g><use xlink:href="#AX" x="1300.309" class="C"/></svg>